<?xml version="1.0" encoding="UTF-8"?>
<xmeml version="1">
    <sequence>
        <name>iMovie Sequence</name>
        <rate>
            <timebase>25</timebase>
        </rate>
        <media>
            <video>
                <track>
                    <clipitem>
                        <file>
                            <pathurl>file://localhost/Users/rukano/Movies/iMovie%20Events.localized/schweine/clip-2008-06-12%2019%3B03%3B52.dv</pathurl>
                            <rate>
                                <timebase>25</timebase>
                            </rate>
                            <duration>1610</duration>
                            <name>clip-2008-06-12 19;03;52.dv</name>
                            <media>
                                <video></video>
                                <audio></audio>
                            </media>
                        </file>
                        <name>clip-2008-06-12 19;03;52.dv</name>
                        <duration>1610</duration>
                        <start>0</start>
                        <end>182</end>
                        <in>76</in>
                        <out>258</out>
                        <rate>
                            <timebase>25</timebase>
                        </rate>
                        <link>
                            <mediatype>video</mediatype>
                            <trackindex>1</trackindex>
                            <clipindex>1</clipindex>
                        </link>
                        <link>
                            <mediatype>audio</mediatype>
                            <trackindex>1</trackindex>
                            <clipindex>1</clipindex>
                            <groupindex>1</groupindex>
                        </link>
                        <link>
                            <mediatype>audio</mediatype>
                            <trackindex>2</trackindex>
                            <clipindex>1</clipindex>
                            <groupindex>1</groupindex>
                        </link>
                    </clipitem>
                    <clipitem>
                        <file>
                            <pathurl>file://localhost/Users/rukano/Movies/iMovie%20Events.localized/schweine/clip-2008-06-12%2019%3B03%3B52.dv</pathurl>
                            <rate>
                                <timebase>25</timebase>
                            </rate>
                            <duration>1610</duration>
                            <name>clip-2008-06-12 19;03;52.dv</name>
                            <media>
                                <video></video>
                                <audio></audio>
                            </media>
                        </file>
                        <name>clip-2008-06-12 19;03;52.dv</name>
                        <duration>1610</duration>
                        <start>182</start>
                        <end>483</end>
                        <in>283</in>
                        <out>584</out>
                        <rate>
                            <timebase>25</timebase>
                        </rate>
                        <link>
                            <mediatype>video</mediatype>
                            <trackindex>1</trackindex>
                            <clipindex>2</clipindex>
                        </link>
                        <link>
                            <mediatype>audio</mediatype>
                            <trackindex>1</trackindex>
                            <clipindex>2</clipindex>
                            <groupindex>1</groupindex>
                        </link>
                        <link>
                            <mediatype>audio</mediatype>
                            <trackindex>2</trackindex>
                            <clipindex>2</clipindex>
                            <groupindex>1</groupindex>
                        </link>
                    </clipitem>
                    <clipitem>
                        <file>
                            <pathurl>file://localhost/Users/rukano/Movies/iMovie%20Events.localized/schweine/clip-2008-06-12%2019%3B03%3B52.dv</pathurl>
                            <rate>
                                <timebase>25</timebase>
                            </rate>
                            <duration>1610</duration>
                            <name>clip-2008-06-12 19;03;52.dv</name>
                            <media>
                                <video></video>
                                <audio></audio>
                            </media>
                        </file>
                        <name>clip-2008-06-12 19;03;52.dv</name>
                        <duration>1610</duration>
                        <start>483</start>
                        <end>747</end>
                        <in>1216</in>
                        <out>1480</out>
                        <rate>
                            <timebase>25</timebase>
                        </rate>
                        <link>
                            <mediatype>video</mediatype>
                            <trackindex>1</trackindex>
                            <clipindex>3</clipindex>
                        </link>
                        <link>
                            <mediatype>audio</mediatype>
                            <trackindex>1</trackindex>
                            <clipindex>3</clipindex>
                            <groupindex>1</groupindex>
                        </link>
                        <link>
                            <mediatype>audio</mediatype>
                            <trackindex>2</trackindex>
                            <clipindex>3</clipindex>
                            <groupindex>1</groupindex>
                        </link>
                    </clipitem>
                    <clipitem>
                        <file>
                            <pathurl>file://localhost/Users/rukano/Movies/iMovie%20Events.localized/schweine/clip-2008-06-12%2019%3B05%3B39.dv</pathurl>
                            <rate>
                                <timebase>25</timebase>
                            </rate>
                            <duration>848</duration>
                            <name>clip-2008-06-12 19;05;39.dv</name>
                            <media>
                                <video></video>
                                <audio></audio>
                            </media>
                        </file>
                        <name>clip-2008-06-12 19;05;39.dv</name>
                        <duration>848</duration>
                        <start>747</start>
                        <end>910</end>
                        <in>0</in>
                        <out>163</out>
                        <rate>
                            <timebase>25</timebase>
                        </rate>
                        <link>
                            <mediatype>video</mediatype>
                            <trackindex>1</trackindex>
                            <clipindex>4</clipindex>
                        </link>
                        <link>
                            <mediatype>audio</mediatype>
                            <trackindex>1</trackindex>
                            <clipindex>4</clipindex>
                            <groupindex>1</groupindex>
                        </link>
                        <link>
                            <mediatype>audio</mediatype>
                            <trackindex>2</trackindex>
                            <clipindex>4</clipindex>
                            <groupindex>1</groupindex>
                        </link>
                    </clipitem>
                    <clipitem>
                        <file>
                            <pathurl>file://localhost/Users/rukano/Movies/iMovie%20Events.localized/schweine/clip-2008-06-12%2019%3B05%3B39.dv</pathurl>
                            <rate>
                                <timebase>25</timebase>
                            </rate>
                            <duration>848</duration>
                            <name>clip-2008-06-12 19;05;39.dv</name>
                            <media>
                                <video></video>
                                <audio></audio>
                            </media>
                        </file>
                        <name>clip-2008-06-12 19;05;39.dv</name>
                        <duration>848</duration>
                        <start>910</start>
                        <end>1273</end>
                        <in>247</in>
                        <out>610</out>
                        <rate>
                            <timebase>25</timebase>
                        </rate>
                        <link>
                            <mediatype>video</mediatype>
                            <trackindex>1</trackindex>
                            <clipindex>5</clipindex>
                        </link>
                        <link>
                            <mediatype>audio</mediatype>
                            <trackindex>1</trackindex>
                            <clipindex>5</clipindex>
                            <groupindex>1</groupindex>
                        </link>
                        <link>
                            <mediatype>audio</mediatype>
                            <trackindex>2</trackindex>
                            <clipindex>5</clipindex>
                            <groupindex>1</groupindex>
                        </link>
                    </clipitem>
                    <clipitem>
                        <file>
                            <pathurl>file://localhost/Users/rukano/Movies/iMovie%20Events.localized/schweine/clip-2008-06-12%2019%3B06%3B41.dv</pathurl>
                            <rate>
                                <timebase>25</timebase>
                            </rate>
                            <duration>288</duration>
                            <name>clip-2008-06-12 19;06;41.dv</name>
                            <media>
                                <video></video>
                                <audio></audio>
                            </media>
                        </file>
                        <name>clip-2008-06-12 19;06;41.dv</name>
                        <duration>288</duration>
                        <start>1273</start>
                        <end>1479</end>
                        <in>7</in>
                        <out>213</out>
                        <rate>
                            <timebase>25</timebase>
                        </rate>
                        <link>
                            <mediatype>video</mediatype>
                            <trackindex>1</trackindex>
                            <clipindex>6</clipindex>
                        </link>
                        <link>
                            <mediatype>audio</mediatype>
                            <trackindex>1</trackindex>
                            <clipindex>6</clipindex>
                            <groupindex>1</groupindex>
                        </link>
                        <link>
                            <mediatype>audio</mediatype>
                            <trackindex>2</trackindex>
                            <clipindex>6</clipindex>
                            <groupindex>1</groupindex>
                        </link>
                    </clipitem>
                    <clipitem>
                        <file>
                            <pathurl>file://localhost/Users/rukano/Movies/iMovie%20Events.localized/schweine/clip-2008-06-12%2019%3B07%3B09.dv</pathurl>
                            <rate>
                                <timebase>25</timebase>
                            </rate>
                            <duration>774</duration>
                            <name>clip-2008-06-12 19;07;09.dv</name>
                            <media>
                                <video></video>
                                <audio></audio>
                            </media>
                        </file>
                        <name>clip-2008-06-12 19;07;09.dv</name>
                        <duration>774</duration>
                        <start>1479</start>
                        <end>2170</end>
                        <in>0</in>
                        <out>691</out>
                        <rate>
                            <timebase>25</timebase>
                        </rate>
                        <link>
                            <mediatype>video</mediatype>
                            <trackindex>1</trackindex>
                            <clipindex>7</clipindex>
                        </link>
                        <link>
                            <mediatype>audio</mediatype>
                            <trackindex>1</trackindex>
                            <clipindex>7</clipindex>
                            <groupindex>1</groupindex>
                        </link>
                        <link>
                            <mediatype>audio</mediatype>
                            <trackindex>2</trackindex>
                            <clipindex>7</clipindex>
                            <groupindex>1</groupindex>
                        </link>
                    </clipitem>
                </track>
            </video>
            <audio>
                <track>
                    <clipitem>
                        <file>
                            <pathurl>file://localhost/Users/rukano/Movies/iMovie%20Events.localized/schweine/clip-2008-06-12%2019%3B03%3B52.dv</pathurl>
                            <rate>
                                <timebase>25</timebase>
                            </rate>
                            <duration>1610</duration>
                            <name>clip-2008-06-12 19;03;52.dv</name>
                        </file>
                        <name>clip-2008-06-12 19;03;52.dv</name>
                        <duration>1610</duration>
                        <start>0</start>
                        <end>182</end>
                        <in>76</in>
                        <out>258</out>
                        <rate>
                            <timebase>25</timebase>
                        </rate>
                        <filter>
                            <effect>
                                <name>Audio Levels</name>
                                <effectid>audiolevels</effectid>
                                <effectcategory>audiolevels</effectcategory>
                                <effecttype>audiolevels</effecttype>
                                <mediatype>audio</mediatype>
                                <parameter>
                                    <name>Level</name>
                                    <parameterid>level</parameterid>
                                    <value>1.013699</value>
                                </parameter>
                            </effect>
                        </filter>
                        <sourcetrack>
                            <mediatype>audio</mediatype>
                            <trackindex>1</trackindex>
                        </sourcetrack>
                    </clipitem>
                    <clipitem>
                        <file>
                            <pathurl>file://localhost/Users/rukano/Movies/iMovie%20Events.localized/schweine/clip-2008-06-12%2019%3B03%3B52.dv</pathurl>
                            <rate>
                                <timebase>25</timebase>
                            </rate>
                            <duration>1610</duration>
                            <name>clip-2008-06-12 19;03;52.dv</name>
                        </file>
                        <name>clip-2008-06-12 19;03;52.dv</name>
                        <duration>1610</duration>
                        <start>182</start>
                        <end>483</end>
                        <in>283</in>
                        <out>584</out>
                        <rate>
                            <timebase>25</timebase>
                        </rate>
                        <filter>
                            <effect>
                                <name>Audio Levels</name>
                                <effectid>audiolevels</effectid>
                                <effectcategory>audiolevels</effectcategory>
                                <effecttype>audiolevels</effecttype>
                                <mediatype>audio</mediatype>
                                <parameter>
                                    <name>Level</name>
                                    <parameterid>level</parameterid>
                                    <value>0.986301</value>
                                </parameter>
                            </effect>
                        </filter>
                        <sourcetrack>
                            <mediatype>audio</mediatype>
                            <trackindex>1</trackindex>
                        </sourcetrack>
                    </clipitem>
                    <clipitem>
                        <file>
                            <pathurl>file://localhost/Users/rukano/Movies/iMovie%20Events.localized/schweine/clip-2008-06-12%2019%3B03%3B52.dv</pathurl>
                            <rate>
                                <timebase>25</timebase>
                            </rate>
                            <duration>1610</duration>
                            <name>clip-2008-06-12 19;03;52.dv</name>
                        </file>
                        <name>clip-2008-06-12 19;03;52.dv</name>
                        <duration>1610</duration>
                        <start>483</start>
                        <end>747</end>
                        <in>1216</in>
                        <out>1480</out>
                        <rate>
                            <timebase>25</timebase>
                        </rate>
                        <filter>
                            <effect>
                                <name>Audio Levels</name>
                                <effectid>audiolevels</effectid>
                                <effectcategory>audiolevels</effectcategory>
                                <effecttype>audiolevels</effecttype>
                                <mediatype>audio</mediatype>
                                <parameter>
                                    <name>Level</name>
                                    <parameterid>level</parameterid>
                                    <value>0.986301</value>
                                </parameter>
                            </effect>
                        </filter>
                        <sourcetrack>
                            <mediatype>audio</mediatype>
                            <trackindex>1</trackindex>
                        </sourcetrack>
                    </clipitem>
                    <clipitem>
                        <file>
                            <pathurl>file://localhost/Users/rukano/Movies/iMovie%20Events.localized/schweine/clip-2008-06-12%2019%3B05%3B39.dv</pathurl>
                            <rate>
                                <timebase>25</timebase>
                            </rate>
                            <duration>848</duration>
                            <name>clip-2008-06-12 19;05;39.dv</name>
                        </file>
                        <name>clip-2008-06-12 19;05;39.dv</name>
                        <duration>848</duration>
                        <start>747</start>
                        <end>910</end>
                        <in>0</in>
                        <out>163</out>
                        <rate>
                            <timebase>25</timebase>
                        </rate>
                        <filter>
                            <effect>
                                <name>Audio Levels</name>
                                <effectid>audiolevels</effectid>
                                <effectcategory>audiolevels</effectcategory>
                                <effecttype>audiolevels</effecttype>
                                <mediatype>audio</mediatype>
                                <parameter>
                                    <name>Level</name>
                                    <parameterid>level</parameterid>
                                    <value>0.986301</value>
                                </parameter>
                            </effect>
                        </filter>
                        <sourcetrack>
                            <mediatype>audio</mediatype>
                            <trackindex>1</trackindex>
                        </sourcetrack>
                    </clipitem>
                    <clipitem>
                        <file>
                            <pathurl>file://localhost/Users/rukano/Movies/iMovie%20Events.localized/schweine/clip-2008-06-12%2019%3B05%3B39.dv</pathurl>
                            <rate>
                                <timebase>25</timebase>
                            </rate>
                            <duration>848</duration>
                            <name>clip-2008-06-12 19;05;39.dv</name>
                        </file>
                        <name>clip-2008-06-12 19;05;39.dv</name>
                        <duration>848</duration>
                        <start>910</start>
                        <end>1273</end>
                        <in>247</in>
                        <out>610</out>
                        <rate>
                            <timebase>25</timebase>
                        </rate>
                        <filter>
                            <effect>
                                <name>Audio Levels</name>
                                <effectid>audiolevels</effectid>
                                <effectcategory>audiolevels</effectcategory>
                                <effecttype>audiolevels</effecttype>
                                <mediatype>audio</mediatype>
                                <parameter>
                                    <name>Level</name>
                                    <parameterid>level</parameterid>
                                    <value>1.013699</value>
                                </parameter>
                            </effect>
                        </filter>
                        <sourcetrack>
                            <mediatype>audio</mediatype>
                            <trackindex>1</trackindex>
                        </sourcetrack>
                    </clipitem>
                    <clipitem>
                        <file>
                            <pathurl>file://localhost/Users/rukano/Movies/iMovie%20Events.localized/schweine/clip-2008-06-12%2019%3B06%3B41.dv</pathurl>
                            <rate>
                                <timebase>25</timebase>
                            </rate>
                            <duration>288</duration>
                            <name>clip-2008-06-12 19;06;41.dv</name>
                        </file>
                        <name>clip-2008-06-12 19;06;41.dv</name>
                        <duration>288</duration>
                        <start>1273</start>
                        <end>1479</end>
                        <in>7</in>
                        <out>213</out>
                        <rate>
                            <timebase>25</timebase>
                        </rate>
                        <filter>
                            <effect>
                                <name>Audio Levels</name>
                                <effectid>audiolevels</effectid>
                                <effectcategory>audiolevels</effectcategory>
                                <effecttype>audiolevels</effecttype>
                                <mediatype>audio</mediatype>
                                <parameter>
                                    <name>Level</name>
                                    <parameterid>level</parameterid>
                                    <value>0.972603</value>
                                </parameter>
                            </effect>
                        </filter>
                        <sourcetrack>
                            <mediatype>audio</mediatype>
                            <trackindex>1</trackindex>
                        </sourcetrack>
                    </clipitem>
                    <clipitem>
                        <file>
                            <pathurl>file://localhost/Users/rukano/Movies/iMovie%20Events.localized/schweine/clip-2008-06-12%2019%3B07%3B09.dv</pathurl>
                            <rate>
                                <timebase>25</timebase>
                            </rate>
                            <duration>774</duration>
                            <name>clip-2008-06-12 19;07;09.dv</name>
                        </file>
                        <name>clip-2008-06-12 19;07;09.dv</name>
                        <duration>774</duration>
                        <start>1479</start>
                        <end>2170</end>
                        <in>0</in>
                        <out>691</out>
                        <rate>
                            <timebase>25</timebase>
                        </rate>
                        <filter>
                            <effect>
                                <name>Audio Levels</name>
                                <effectid>audiolevels</effectid>
                                <effectcategory>audiolevels</effectcategory>
                                <effecttype>audiolevels</effecttype>
                                <mediatype>audio</mediatype>
                                <parameter>
                                    <name>Level</name>
                                    <parameterid>level</parameterid>
                                    <value>1.054795</value>
                                </parameter>
                            </effect>
                        </filter>
                        <sourcetrack>
                            <mediatype>audio</mediatype>
                            <trackindex>1</trackindex>
                        </sourcetrack>
                    </clipitem>
                </track>
                <track>
                    <clipitem>
                        <file>
                            <pathurl>file://localhost/Users/rukano/Movies/iMovie%20Events.localized/schweine/clip-2008-06-12%2019%3B03%3B52.dv</pathurl>
                            <rate>
                                <timebase>25</timebase>
                            </rate>
                            <duration>1610</duration>
                            <name>clip-2008-06-12 19;03;52.dv</name>
                        </file>
                        <name>clip-2008-06-12 19;03;52.dv</name>
                        <duration>1610</duration>
                        <start>0</start>
                        <end>182</end>
                        <in>76</in>
                        <out>258</out>
                        <rate>
                            <timebase>25</timebase>
                        </rate>
                        <filter>
                            <effect>
                                <name>Audio Levels</name>
                                <effectid>audiolevels</effectid>
                                <effectcategory>audiolevels</effectcategory>
                                <effecttype>audiolevels</effecttype>
                                <mediatype>audio</mediatype>
                                <parameter>
                                    <name>Level</name>
                                    <parameterid>level</parameterid>
                                    <value>1.013699</value>
                                </parameter>
                            </effect>
                        </filter>
                        <sourcetrack>
                            <mediatype>audio</mediatype>
                            <trackindex>2</trackindex>
                        </sourcetrack>
                    </clipitem>
                    <clipitem>
                        <file>
                            <pathurl>file://localhost/Users/rukano/Movies/iMovie%20Events.localized/schweine/clip-2008-06-12%2019%3B03%3B52.dv</pathurl>
                            <rate>
                                <timebase>25</timebase>
                            </rate>
                            <duration>1610</duration>
                            <name>clip-2008-06-12 19;03;52.dv</name>
                        </file>
                        <name>clip-2008-06-12 19;03;52.dv</name>
                        <duration>1610</duration>
                        <start>182</start>
                        <end>483</end>
                        <in>283</in>
                        <out>584</out>
                        <rate>
                            <timebase>25</timebase>
                        </rate>
                        <filter>
                            <effect>
                                <name>Audio Levels</name>
                                <effectid>audiolevels</effectid>
                                <effectcategory>audiolevels</effectcategory>
                                <effecttype>audiolevels</effecttype>
                                <mediatype>audio</mediatype>
                                <parameter>
                                    <name>Level</name>
                                    <parameterid>level</parameterid>
                                    <value>0.986301</value>
                                </parameter>
                            </effect>
                        </filter>
                        <sourcetrack>
                            <mediatype>audio</mediatype>
                            <trackindex>2</trackindex>
                        </sourcetrack>
                    </clipitem>
                    <clipitem>
                        <file>
                            <pathurl>file://localhost/Users/rukano/Movies/iMovie%20Events.localized/schweine/clip-2008-06-12%2019%3B03%3B52.dv</pathurl>
                            <rate>
                                <timebase>25</timebase>
                            </rate>
                            <duration>1610</duration>
                            <name>clip-2008-06-12 19;03;52.dv</name>
                        </file>
                        <name>clip-2008-06-12 19;03;52.dv</name>
                        <duration>1610</duration>
                        <start>483</start>
                        <end>747</end>
                        <in>1216</in>
                        <out>1480</out>
                        <rate>
                            <timebase>25</timebase>
                        </rate>
                        <filter>
                            <effect>
                                <name>Audio Levels</name>
                                <effectid>audiolevels</effectid>
                                <effectcategory>audiolevels</effectcategory>
                                <effecttype>audiolevels</effecttype>
                                <mediatype>audio</mediatype>
                                <parameter>
                                    <name>Level</name>
                                    <parameterid>level</parameterid>
                                    <value>0.986301</value>
                                </parameter>
                            </effect>
                        </filter>
                        <sourcetrack>
                            <mediatype>audio</mediatype>
                            <trackindex>2</trackindex>
                        </sourcetrack>
                    </clipitem>
                    <clipitem>
                        <file>
                            <pathurl>file://localhost/Users/rukano/Movies/iMovie%20Events.localized/schweine/clip-2008-06-12%2019%3B05%3B39.dv</pathurl>
                            <rate>
                                <timebase>25</timebase>
                            </rate>
                            <duration>848</duration>
                            <name>clip-2008-06-12 19;05;39.dv</name>
                        </file>
                        <name>clip-2008-06-12 19;05;39.dv</name>
                        <duration>848</duration>
                        <start>747</start>
                        <end>910</end>
                        <in>0</in>
                        <out>163</out>
                        <rate>
                            <timebase>25</timebase>
                        </rate>
                        <filter>
                            <effect>
                                <name>Audio Levels</name>
                                <effectid>audiolevels</effectid>
                                <effectcategory>audiolevels</effectcategory>
                                <effecttype>audiolevels</effecttype>
                                <mediatype>audio</mediatype>
                                <parameter>
                                    <name>Level</name>
                                    <parameterid>level</parameterid>
                                    <value>0.986301</value>
                                </parameter>
                            </effect>
                        </filter>
                        <sourcetrack>
                            <mediatype>audio</mediatype>
                            <trackindex>2</trackindex>
                        </sourcetrack>
                    </clipitem>
                    <clipitem>
                        <file>
                            <pathurl>file://localhost/Users/rukano/Movies/iMovie%20Events.localized/schweine/clip-2008-06-12%2019%3B05%3B39.dv</pathurl>
                            <rate>
                                <timebase>25</timebase>
                            </rate>
                            <duration>848</duration>
                            <name>clip-2008-06-12 19;05;39.dv</name>
                        </file>
                        <name>clip-2008-06-12 19;05;39.dv</name>
                        <duration>848</duration>
                        <start>910</start>
                        <end>1273</end>
                        <in>247</in>
                        <out>610</out>
                        <rate>
                            <timebase>25</timebase>
                        </rate>
                        <filter>
                            <effect>
                                <name>Audio Levels</name>
                                <effectid>audiolevels</effectid>
                                <effectcategory>audiolevels</effectcategory>
                                <effecttype>audiolevels</effecttype>
                                <mediatype>audio</mediatype>
                                <parameter>
                                    <name>Level</name>
                                    <parameterid>level</parameterid>
                                    <value>1.013699</value>
                                </parameter>
                            </effect>
                        </filter>
                        <sourcetrack>
                            <mediatype>audio</mediatype>
                            <trackindex>2</trackindex>
                        </sourcetrack>
                    </clipitem>
                    <clipitem>
                        <file>
                            <pathurl>file://localhost/Users/rukano/Movies/iMovie%20Events.localized/schweine/clip-2008-06-12%2019%3B06%3B41.dv</pathurl>
                            <rate>
                                <timebase>25</timebase>
                            </rate>
                            <duration>288</duration>
                            <name>clip-2008-06-12 19;06;41.dv</name>
                        </file>
                        <name>clip-2008-06-12 19;06;41.dv</name>
                        <duration>288</duration>
                        <start>1273</start>
                        <end>1479</end>
                        <in>7</in>
                        <out>213</out>
                        <rate>
                            <timebase>25</timebase>
                        </rate>
                        <filter>
                            <effect>
                                <name>Audio Levels</name>
                                <effectid>audiolevels</effectid>
                                <effectcategory>audiolevels</effectcategory>
                                <effecttype>audiolevels</effecttype>
                                <mediatype>audio</mediatype>
                                <parameter>
                                    <name>Level</name>
                                    <parameterid>level</parameterid>
                                    <value>0.972603</value>
                                </parameter>
                            </effect>
                        </filter>
                        <sourcetrack>
                            <mediatype>audio</mediatype>
                            <trackindex>2</trackindex>
                        </sourcetrack>
                    </clipitem>
                    <clipitem>
                        <file>
                            <pathurl>file://localhost/Users/rukano/Movies/iMovie%20Events.localized/schweine/clip-2008-06-12%2019%3B07%3B09.dv</pathurl>
                            <rate>
                                <timebase>25</timebase>
                            </rate>
                            <duration>774</duration>
                            <name>clip-2008-06-12 19;07;09.dv</name>
                        </file>
                        <name>clip-2008-06-12 19;07;09.dv</name>
                        <duration>774</duration>
                        <start>1479</start>
                        <end>2170</end>
                        <in>0</in>
                        <out>691</out>
                        <rate>
                            <timebase>25</timebase>
                        </rate>
                        <filter>
                            <effect>
                                <name>Audio Levels</name>
                                <effectid>audiolevels</effectid>
                                <effectcategory>audiolevels</effectcategory>
                                <effecttype>audiolevels</effecttype>
                                <mediatype>audio</mediatype>
                                <parameter>
                                    <name>Level</name>
                                    <parameterid>level</parameterid>
                                    <value>1.054795</value>
                                </parameter>
                            </effect>
                        </filter>
                        <sourcetrack>
                            <mediatype>audio</mediatype>
                            <trackindex>2</trackindex>
                        </sourcetrack>
                    </clipitem>
                </track>
            </audio>
        </media>
        <duration>2170</duration>
    </sequence>
</xmeml>